<?xml version="1.0" encoding="utf-8"?>
<!-- Generator: Adobe Illustrator 16.0.0, SVG Export Plug-In . SVG Version: 6.00 Build 0)  -->
<!DOCTYPE svg PUBLIC "-//W3C//DTD SVG 1.1//EN" "http://www.w3.org/Graphics/SVG/1.1/DTD/svg11.dtd">
<svg version="1.1" id="Layer_1" xmlns="http://www.w3.org/2000/svg" xmlns:xlink="http://www.w3.org/1999/xlink" x="0px" y="0px"
	 width="262.5px" height="60.5px" viewBox="0 0 262.5 60.5" enable-background="new 0 0 262.5 60.5" xml:space="preserve">
<g>
	<g>
		<polygon fill="#434343" points="21.492,35.795 7.794,22.116 21.492,8.416 35.172,22.116 32.42,24.866 35.816,28.264 
			41.984,22.116 21.492,1.625 1,22.116 21.492,42.605 28.009,36.07 24.611,32.675 		"/>
	</g>
	<g>
		<polygon fill="#434343" points="21.53,18.516 14.975,25.089 18.371,28.484 21.53,25.328 35.226,39.006 21.53,52.707 7.85,39.006 
			10.561,36.295 7.166,32.896 1.036,39.006 21.53,59.5 42.02,39.006 		"/>
	</g>
</g>
<g>
	<path fill="#434343" d="M39.399,26.954h-0.518v-0.185h1.257v0.185H39.62v1.513h-0.221V26.954z"/>
	<path fill="#434343" d="M41.761,27.71c-0.018-0.241-0.036-0.518-0.018-0.739l0,0c-0.057,0.2-0.131,0.405-0.223,0.644l-0.295,0.833
		H41.06l-0.277-0.813c-0.074-0.241-0.148-0.464-0.205-0.665l0,0c0,0.221-0.018,0.498-0.036,0.754l-0.036,0.741h-0.222l0.11-1.698
		h0.277l0.295,0.828c0.074,0.205,0.131,0.39,0.167,0.575l0,0c0.036-0.167,0.11-0.352,0.185-0.575l0.295-0.828h0.277l0.11,1.7h-0.221
		L41.761,27.71z"/>
</g>
<g>
	<path fill="#434343" d="M64.525,32.417v6.646c-0.039,1.588-1.292,2.865-2.88,2.865h-4.208V19.217h4.208
		c1.588,0,2.86,1.257,2.88,2.862v6.647c0,0,0.036,1.42-1.331,1.844C64.561,30.979,64.525,32.417,64.525,32.417z M62.196,22.724
		c0-0.849-0.59-1.162-1.2-1.162h-1.254V29.5h1.254c0.61,0,1.2-0.297,1.2-1.331V22.724z M62.196,32.932c0-0.994-0.59-1.289-1.2-1.289
		h-1.254v7.973h1.254c0.61,0,1.2-0.33,1.2-1.199V32.932z"/>
	<path fill="#434343" d="M85.956,39.598c-0.256,0.59-0.644,1.494-0.739,1.68c-0.164,0.295-0.518,0.607-1.254,0.607h-5.576V19.216
		h1.624c0.387,0.036,0.72,0.333,0.72,0.721v19.678h5.225V39.598L85.956,39.598z"/>
	<path fill="#434343" d="M100.816,18.995c1.552,0.074,2.826,1.329,2.826,2.88v17.41c-0.038,1.549-1.256,2.787-2.826,2.859h-1.79
		c-1.588,0-2.878-1.291-2.916-2.859V21.876c0-1.588,1.292-2.88,2.916-2.88L100.816,18.995L100.816,18.995z M100.042,40.096
		c0.682,0,1.236-0.555,1.236-1.254V22.317c0-0.718-0.554-1.254-1.236-1.254H99.69c-0.682,0.036-1.236,0.59-1.236,1.254v16.525
		c0,0.682,0.554,1.236,1.236,1.254H100.042L100.042,40.096z"/>
	<path fill="#434343" d="M123.765,39.248c0,1.551-1.236,2.824-2.788,2.879h-1.423c-1.624,0-2.916-1.293-2.916-2.879V21.876
		c0-1.588,1.292-2.88,2.916-2.88h1.423c1.552,0.036,2.788,1.329,2.788,2.88v3.47c0,0.739-0.333,1.108-0.61,1.236l-1.678,0.777
		v-5.096c0-0.685-0.554-1.236-1.256-1.236c-0.683,0-1.236,0.554-1.236,1.236V38.82c0,0.723,0.554,1.258,1.236,1.258
		c0.721,0,1.256-0.555,1.256-1.258v-3.045c0-0.736,0.331-1.105,0.608-1.254c0.203-0.092,1.108-0.479,1.68-0.74V39.248
		L123.765,39.248z"/>
	<path fill="#434343" d="M142.762,41.902l-3.121-10.149v10.149h-2.309V20.085c0-0.721,0.479-0.851,0.738-0.869h1.552v8.271
		l2.862-8.197h2.437l-3.653,10.208l3.91,12.404H142.762L142.762,41.902z"/>
	<path fill="#434343" d="M164.285,39.248c0,1.551-1.236,2.824-2.788,2.879h-1.421c-1.626,0-2.916-1.293-2.916-2.879V21.876
		c0-1.588,1.29-2.88,2.916-2.88h1.421c1.552,0.036,2.788,1.329,2.788,2.88v3.47c0,0.739-0.334,1.108-0.61,1.236l-1.681,0.777v-5.096
		c0-0.685-0.555-1.236-1.254-1.236c-0.682,0-1.236,0.554-1.236,1.236V38.82c0,0.723,0.555,1.258,1.236,1.258
		c0.721,0,1.254-0.555,1.254-1.258v-3.045c0-0.736,0.334-1.105,0.609-1.254c0.203-0.092,1.108-0.479,1.682-0.74V39.248z"/>
	<path fill="#434343" d="M183.871,19.216c0.721,0,0.941,0.518,0.941,0.905v21.781h-2.324v-9.873
		c-0.038-0.295-0.258-0.519-0.553-0.519h-2.533v10.413h-2.322V20.142c0-0.387,0.221-0.905,0.941-0.905h1.385v9.174
		c0,0.646,0.257,0.813,0.811,0.813h2.271v-9.987h1.383V19.216L183.871,19.216z"/>
	<path fill="#434343" d="M205.12,41.902h-2.567l-2.049-15.615l-2.05,15.615h-2.563l3.432-22.687h1.257
		c0.978,0,1.126,0.61,1.235,1.236L205.12,41.902z"/>
	<path fill="#434343" d="M218.744,19.216c0.686,0,0.941,0.518,0.941,0.905v21.781h-1.662c-0.555,0-0.646-0.33-0.684-0.477v-22.21
		H218.744z"/>
	<path fill="#434343" d="M240.88,41.902h-1.071c-1.254,0-1.457-0.994-1.549-1.455l-2.494-11.207v12.666h-2.326v-22.69h1.07
		c1.293,0,1.533,0.61,1.664,1.257l2.396,11.795v-13.07h2.326v22.705H240.88z"/>
	<path fill="#434343" d="M258.639,24.922v-2.621c0-0.721-0.555-1.257-1.236-1.257c-0.686,0-1.235,0.554-1.235,1.257v2.177
		c0,1.329,0.994,3.047,0.994,3.047l2.788,5.24c1.126,2.069,1.033,3.601,1.033,3.601v2.883c0,1.586-1.289,2.879-2.916,2.879h-1.459
		c-1.549-0.076-2.789-1.33-2.821-2.879v-2.326c0-0.74,0.349-1.109,0.646-1.258c0.2-0.072,1.123-0.479,1.717-0.736v3.949
		c0,0.686,0.554,1.236,1.235,1.236c0.683,0,1.236-0.555,1.236-1.254v-2.586c0-1.33-0.998-3.086-0.998-3.086l-2.788-5.224
		c-1.125-2.067-1.033-3.598-1.033-3.598V22.04c0-1.587,1.293-3.008,2.92-3.008h1.455c1.553,0.036,2.824,1.457,2.824,3.008v0.867
		c0,0.741-0.352,1.111-0.645,1.257C260.169,24.237,259.248,24.663,258.639,24.922z"/>
</g>
</svg>
