<?xml version="1.0" encoding="utf-8"?>
<!-- Generator: Adobe Illustrator 16.0.0, SVG Export Plug-In . SVG Version: 6.00 Build 0)  -->
<!DOCTYPE svg PUBLIC "-//W3C//DTD SVG 1.1//EN" "http://www.w3.org/Graphics/SVG/1.1/DTD/svg11.dtd">
<svg version="1.1" id="Shape_1_1_" opacity="0.4" xmlns="http://www.w3.org/2000/svg" xmlns:xlink="http://www.w3.org/1999/xlink"
	 x="0px" y="0px" width="23px" height="23px" viewBox="0 0 23 23" enable-background="new 0 0 23 23" xml:space="preserve">
<g id="Shape_1">
	<g>
		<path fill="#3C4248" d="M22.346,20.123l-5.688-5.69c1.009-1.416,1.603-3.147,1.603-5.02c0-4.782-3.877-8.659-8.658-8.659
			S0.943,4.631,0.943,9.413s3.877,8.66,8.658,8.66c1.871,0,3.603-0.594,5.019-1.603l0.001-0.001l5.689,5.689
			c0.555,0.557,1.458,0.555,2.012,0l0.023-0.023C22.902,21.581,22.906,20.684,22.346,20.123z M9.602,16.035
			c-3.657,0-6.621-2.965-6.621-6.622s2.964-6.622,6.621-6.622c3.656,0,6.621,2.965,6.621,6.622S13.258,16.035,9.602,16.035z"/>
	</g>
</g>
</svg>
